#N canvas 1248 0 657 986 10;
#X declare -lib moocow;
#X declare -lib mpreach;
#N canvas 793 12 1035 986 arduino_com 0;
#X obj 312 169 print;
#X obj 442 297 ascseq;
#X msg -17 43 close;
#X msg 350 38 1/1/13/2/;
#X msg 369 67 ~1/1/13/1^;
#N canvas 583 14 822 986 make_list 0;
#X obj 189 52 inlet;
#X obj 26 324 print after_repack;
#X obj 497 50 import moocow;
#X obj 190 116 select 60 62;
#X obj 193 182 spigot;
#X msg 102 152 0;
#X msg 136 154 1;
#X obj 189 258 bytes2any 0 -1;
#X obj 189 312 repack 7;
#X obj 339 115 select 40 41;
#X msg 371 140 0;
#X msg 339 140 1;
#X obj 338 179 spigot;
#X obj 342 263 bytes2any 0 -1;
#X obj 535 391 print analog_ascii;
#N canvas 694 168 722 497 digital_parse 0;
#X floatatom 113 133 5 0 0 0 - - -;
#X floatatom 168 135 5 0 0 0 - - -;
#X floatatom 337 143 5 0 0 0 - - -;
#X obj 175 444 outlet;
#X msg 200 218 3;
#X msg 236 221 4;
#X msg 268 221 5;
#X msg 299 222 6;
#X msg 327 223 7;
#X msg 357 223 9;
#X msg 391 224 10;
#X msg 421 224 11;
#X msg 453 224 12;
#X msg 485 223 13;
#X obj 168 170 t b;
#X msg 45 218 Arduino1;
#X obj 176 410 list trim;
#X obj 71 174 select 1 2 3;
#X msg 44 274 Arduino2;
#X msg 155 221 D;
#X obj 192 37 inlet;
#X obj 189 342 pack s f f;
#X obj 222 184 select 0 1 2 3 4 5 6 7 8 9 ?;
#X msg 526 224 2;
#X obj 189 85 unpack f s f s f s f;
#X obj 475 92 moses 10;
#X connect 0 0 17 0;
#X connect 1 0 14 0;
#X connect 2 0 21 2;
#X connect 4 0 21 1;
#X connect 5 0 21 1;
#X connect 6 0 21 1;
#X connect 7 0 21 1;
#X connect 8 0 21 1;
#X connect 9 0 21 1;
#X connect 10 0 21 1;
#X connect 11 0 21 1;
#X connect 12 0 21 1;
#X connect 13 0 21 1;
#X connect 14 0 19 0;
#X connect 15 0 21 0;
#X connect 16 0 3 0;
#X connect 17 0 15 0;
#X connect 17 1 18 0;
#X connect 18 0 21 0;
#X connect 20 0 24 0;
#X connect 21 0 16 0;
#X connect 22 0 4 0;
#X connect 22 1 5 0;
#X connect 22 2 6 0;
#X connect 22 3 7 0;
#X connect 22 4 8 0;
#X connect 22 5 9 0;
#X connect 22 6 10 0;
#X connect 22 7 11 0;
#X connect 22 8 12 0;
#X connect 22 9 13 0;
#X connect 22 10 23 0;
#X connect 23 0 21 1;
#X connect 24 0 0 0;
#X connect 24 2 1 0;
#X connect 24 4 25 0;
#X connect 24 6 2 0;
#X connect 25 0 22 0;
#X restore 188 351 pd digital_parse;
#X obj 261 446 outlet;
#N canvas 706 436 817 524 analog_parse 0;
#X obj 126 64 inlet;
#X obj 126 106 unpack f s f f s f s f f f;
#N canvas 998 490 450 300 ID 0;
#X obj 80 48 inlet;
#X obj 80 87 select 1 2 3 4 5;
#X msg 51 159 Arduino1;
#X msg 128 157 Arduino2;
#X msg 195 156 Arduino3;
#X msg 266 156 Arduino4;
#X msg 342 157 Arduino5;
#X obj 119 239 outlet;
#X connect 0 0 1 0;
#X connect 1 0 2 0;
#X connect 1 1 3 0;
#X connect 1 2 4 0;
#X connect 1 3 5 0;
#X connect 1 4 6 0;
#X connect 2 0 7 0;
#X connect 3 0 7 0;
#X connect 4 0 7 0;
#X connect 5 0 7 0;
#X connect 6 0 7 0;
#X restore 78 159 pd ID;
#N canvas 918 414 705 475 PIN 0;
#X obj 84 43 inlet;
#X obj 141 45 inlet;
#X obj 92 93 bondo 2;
#X obj 84 142 * 10;
#X obj 97 191 +;
#X obj 69 249 select 14 15 16 17 18 19;
#X msg 48 306 A0;
#X msg 87 307 A1;
#X msg 124 308 A2;
#X msg 165 308 A3;
#X msg 205 312 A4;
#X msg 245 310 A5;
#X obj 117 381 outlet;
#X connect 0 0 2 0;
#X connect 1 0 2 1;
#X connect 2 0 3 0;
#X connect 2 1 4 1;
#X connect 3 0 4 0;
#X connect 4 0 5 0;
#X connect 5 0 6 0;
#X connect 5 1 7 0;
#X connect 5 2 8 0;
#X connect 5 3 9 0;
#X connect 5 4 10 0;
#X connect 5 5 11 0;
#X connect 6 0 12 0;
#X connect 7 0 12 0;
#X connect 8 0 12 0;
#X connect 9 0 12 0;
#X connect 10 0 12 0;
#X connect 11 0 12 0;
#X restore 155 168 pd PIN;
#N canvas 1064 490 449 458 Value 0;
#X obj 33 42 inlet;
#X obj 101 41 inlet;
#X obj 163 43 inlet;
#X obj 222 41 inlet;
#X obj 35 110 * 255;
#X obj 103 103 * 100;
#X obj 164 103 * 10;
#X obj 184 192 +;
#X obj 187 137 bondo 2;
#X obj 109 238 bondo 2;
#X obj 108 284 +;
#X obj 47 360 +;
#X obj 43 312 bondo 2;
#X obj 48 400 / 1020;
#X obj 46 437 outlet;
#X connect 0 0 4 0;
#X connect 1 0 5 0;
#X connect 2 0 6 0;
#X connect 3 0 8 1;
#X connect 4 0 12 0;
#X connect 5 0 9 0;
#X connect 6 0 8 0;
#X connect 7 0 9 1;
#X connect 8 0 7 0;
#X connect 8 1 7 1;
#X connect 9 0 10 0;
#X connect 9 1 10 1;
#X connect 10 0 12 1;
#X connect 11 0 13 0;
#X connect 12 0 11 0;
#X connect 12 1 11 1;
#X connect 13 0 14 0;
#X restore 232 165 pd Value;
#X obj 150 263 list prepend;
#X obj 150 333 outlet;
#X obj 165 212 zl join;
#X obj 150 298 list trim;
#X connect 0 0 1 0;
#X connect 1 0 2 0;
#X connect 1 2 3 0;
#X connect 1 3 3 1;
#X connect 1 5 4 0;
#X connect 1 7 4 1;
#X connect 1 8 4 2;
#X connect 1 9 4 3;
#X connect 2 0 5 1;
#X connect 3 0 7 0;
#X connect 4 0 7 1;
#X connect 5 0 8 0;
#X connect 7 0 5 0;
#X connect 8 0 6 0;
#X restore 339 348 pd analog_parse;
#X obj 342 304 zl group 10;
#X obj 377 210 t b;
#X obj 235 214 t b;
#X connect 0 0 3 0;
#X connect 0 0 9 0;
#X connect 3 0 6 0;
#X connect 3 1 5 0;
#X connect 3 1 20 0;
#X connect 3 2 4 0;
#X connect 4 0 7 0;
#X connect 5 0 4 1;
#X connect 6 0 4 1;
#X connect 7 0 8 0;
#X connect 8 0 15 0;
#X connect 9 0 11 0;
#X connect 9 1 10 0;
#X connect 9 2 12 0;
#X connect 10 0 12 1;
#X connect 10 0 19 0;
#X connect 11 0 12 1;
#X connect 12 0 13 0;
#X connect 13 0 18 0;
#X connect 15 0 16 0;
#X connect 17 0 16 0;
#X connect 18 0 17 0;
#X connect 19 0 18 0;
#X connect 20 0 8 0;
#X restore 155 212 pd make_list;
#X msg 423 95 ~1/1/13/0^;
#X msg 520 38 ~2/1/13/1^;
#X msg 527 109 ~2/1/13/0^;
#X msg 128 97 devices;
#X obj 155 249 route Arduino1 Arduino2 Arduino3;
#N canvas 805 85 844 445 Transport_Controls_Arduino 0;
#X obj 218 119 s master;
#X obj 470 144 bng 15 250 50 0 empty empty empty 17 7 0 10 -262144
-1 -1;
#X obj 684 348 tgl 15 0 empty empty empty 17 7 0 10 -262144 -1 -1 1
1;
#X obj 684 387 s play;
#X obj 562 145 bng 15 250 50 0 empty empty empty 17 7 0 10 -262144
-1 -1;
#X obj 483 345 s save;
#X obj 548 419 s click;
#X obj 677 111 bng 15 250 50 0 empty empty empty 17 7 0 10 -262144
-1 -1;
#X obj 458 369 s shw_mxr;
#X obj 593 144 bng 15 250 50 0 empty empty empty 17 7 0 10 -262144
-1 -1;
#X obj 501 144 bng 15 250 50 0 empty empty empty 17 7 0 10 -262144
-1 -1;
#X obj 486 131 bng 15 250 50 0 empty empty empty 17 7 0 10 -262144
-1 -1;
#X obj 516 130 bng 15 250 50 0 empty empty empty 17 7 0 10 -262144
-1 -1;
#X obj 530 145 bng 15 250 50 0 empty empty empty 17 7 0 10 -262144
-1 -1;
#X obj 546 130 bng 15 250 50 0 empty empty empty 17 7 0 10 -262144
-1 -1;
#X obj 578 130 bng 15 250 50 0 empty empty empty 17 7 0 10 -262144
-1 -1;
#X obj 608 129 bng 15 250 50 0 empty empty empty 17 7 0 10 -262144
-1 -1;
#X obj 621 369 s stop;
#X obj 594 393 s record;
#X obj 570 370 s loop;
#X obj 522 391 s new_trck;
#X obj 464 94 route 3 4 5 6 7 9 10 11 12 13;
#X obj 217 30 inlet;
#N canvas 1092 150 450 660 automatization_track 0;
#X obj 161 126 f;
#X obj 192 126 + 1;
#X obj 161 174 mod 5;
#X floatatom 113 196 5 0 0 0 - - -;
#X obj 109 235 select 0 1 2 3 4;
#X obj 95 284 s auto_latch;
#X obj 116 349 s auto_read;
#X obj 162 386 s auto_touch;
#X obj 209 421 s auto_trim;
#X obj 296 402 s auto_write;
#X msg 109 150 0;
#X obj 104 106 loadbang;
#X obj 195 66 inlet;
#X connect 0 0 1 0;
#X connect 0 0 2 0;
#X connect 1 0 0 1;
#X connect 2 0 3 0;
#X connect 3 0 4 0;
#X connect 4 0 5 0;
#X connect 4 1 6 0;
#X connect 4 2 7 0;
#X connect 4 3 8 0;
#X connect 4 4 9 0;
#X connect 10 0 3 0;
#X connect 11 0 10 0;
#X connect 12 0 0 0;
#X restore 536 342 pd automatization_track;
#X obj 503 321 s trck_slct;
#X obj 697 168 s trck_bnk;
#X obj 263 159 s trck_vol;
#X obj 218 77 route A0 A1 A2 A3 A4 A5;
#X obj 308 228 s trck_pan;
#X connect 1 0 8 0;
#X connect 2 0 3 0;
#X connect 4 0 19 0;
#X connect 7 0 25 0;
#X connect 9 0 17 0;
#X connect 10 0 24 0;
#X connect 11 0 5 0;
#X connect 12 0 20 0;
#X connect 13 0 23 0;
#X connect 14 0 6 0;
#X connect 15 0 18 0;
#X connect 16 0 2 0;
#X connect 21 0 1 0;
#X connect 21 1 11 0;
#X connect 21 2 10 0;
#X connect 21 3 12 0;
#X connect 21 4 13 0;
#X connect 21 5 14 0;
#X connect 21 6 4 0;
#X connect 21 7 15 0;
#X connect 21 8 9 0;
#X connect 21 9 16 0;
#X connect 21 10 7 0;
#X connect 22 0 27 0;
#X connect 27 0 0 0;
#X connect 27 2 26 0;
#X connect 27 4 28 0;
#X connect 27 6 21 0;
#X restore 218 555 pd Transport_Controls_Arduino;
#X msg 24 133 open \$1;
#X obj 14 100 r com_port;
#X obj 118 47 r com_devices;
#N canvas 1044 435 893 515 DrumMachine 0;
#X obj 228 129 s master;
#X obj 480 154 bng 15 250 50 0 empty empty empty 17 7 0 10 -262144
-1 -1;
#X obj 572 155 bng 15 250 50 0 empty empty empty 17 7 0 10 -262144
-1 -1;
#X obj 687 121 bng 15 250 50 0 empty empty empty 17 7 0 10 -262144
-1 -1;
#X obj 603 154 bng 15 250 50 0 empty empty empty 17 7 0 10 -262144
-1 -1;
#X obj 511 154 bng 15 250 50 0 empty empty empty 17 7 0 10 -262144
-1 -1;
#X obj 496 141 bng 15 250 50 0 empty empty empty 17 7 0 10 -262144
-1 -1;
#X obj 526 140 bng 15 250 50 0 empty empty empty 17 7 0 10 -262144
-1 -1;
#X obj 540 155 bng 15 250 50 0 empty empty empty 17 7 0 10 -262144
-1 -1;
#X obj 556 140 bng 15 250 50 0 empty empty empty 17 7 0 10 -262144
-1 -1;
#X obj 588 140 bng 15 250 50 0 empty empty empty 17 7 0 10 -262144
-1 -1;
#X obj 618 139 bng 15 250 50 0 empty empty empty 17 7 0 10 -262144
-1 -1;
#X obj 474 104 route 3 4 5 6 7 9 10 11 12 13;
#X obj 227 40 inlet;
#X obj 228 87 route A0 A1 A2 A3 A4 A5;
#X obj 618 264 s Pad1;
#X obj 262 181 s notelength;
#X obj 318 257 s velocity;
#X obj 601 297 s Pad2;
#X obj 579 314 s Pad3;
#X obj 570 275 s Pad4;
#X obj 559 347 s Pad5;
#X obj 543 318 s Pad6;
#X obj 533 355 s Pad7;
#X obj 516 308 s Pad8;
#X obj 477 353 s play;
#X obj 452 405 s click;
#X obj 177 191 * 100;
#X obj 150 270 * 100;
#X connect 1 0 26 0;
#X connect 2 0 20 0;
#X connect 4 0 18 0;
#X connect 5 0 24 0;
#X connect 6 0 25 0;
#X connect 7 0 23 0;
#X connect 8 0 22 0;
#X connect 9 0 21 0;
#X connect 10 0 19 0;
#X connect 11 0 15 0;
#X connect 12 0 1 0;
#X connect 12 1 6 0;
#X connect 12 2 5 0;
#X connect 12 3 7 0;
#X connect 12 4 8 0;
#X connect 12 5 9 0;
#X connect 12 6 2 0;
#X connect 12 7 10 0;
#X connect 12 8 4 0;
#X connect 12 9 11 0;
#X connect 12 10 3 0;
#X connect 13 0 14 0;
#X connect 14 0 0 0;
#X connect 14 2 27 0;
#X connect 14 4 28 0;
#X connect 14 6 12 0;
#X connect 27 0 16 0;
#X connect 28 0 17 0;
#X restore 241 484 pd DrumMachine;
#X obj 155 175 comport $ 115200;
#X obj 287 322 r Arduino2Behaviour;
#X obj 218 372 list prepend;
#X obj 218 396 list trim;
#X obj 221 452 route 0 1 2;
#X obj 35 291 print parsed_messsage_from_CU;
#X obj 898 32 r MIDINOTE;
#X obj 764 2 r MIDISTATE;
#X floatatom 746 362 5 0 0 0 - - -;
#X floatatom 838 372 5 0 0 0 - - -;
#X obj 764 113 trigger b b b b b;
#X obj 745 233 f;
#X obj 840 237 f;
#X obj 546 487 print midiout;
#X msg 795 235 symbol /;
#X obj 541 432 l2s /;
#X obj 548 297 pack s f f s;
#X obj 91 207 print com_out;
#X msg 878 236 symbol 0^;
#X msg 686 232 ~1/9;
#N canvas 0 208 731 492 MIDIKEY 0;
#X obj 128 139 s master;
#X obj 587 131 bng 15 250 50 0 empty empty empty 17 7 0 10 -262144
-1 -1;
#X obj 374 114 route 3 4 5 6 7 9 10 11 12 13;
#X obj 127 50 inlet;
#X obj 128 97 route A0 A1 A2 A3 A4 A5;
#X obj 162 191 s notelength;
#X obj 218 267 s velocity;
#X obj 372 162 tgl 15 0 empty empty empty 17 7 0 10 -262144 -1 -1 0
1;
#X obj 389 162 tgl 15 0 empty empty empty 17 7 0 10 -262144 -1 -1 0
1;
#X obj 407 162 tgl 15 0 empty empty empty 17 7 0 10 -262144 -1 -1 0
1;
#X obj 426 162 tgl 15 0 empty empty empty 17 7 0 10 -262144 -1 -1 0
1;
#X obj 444 162 tgl 15 0 empty empty empty 17 7 0 10 -262144 -1 -1 0
1;
#X obj 462 162 tgl 15 0 empty empty empty 17 7 0 10 -262144 -1 -1 0
1;
#X obj 482 162 tgl 15 0 empty empty empty 17 7 0 10 -262144 -1 -1 0
1;
#X obj 500 161 tgl 15 0 empty empty empty 17 7 0 10 -262144 -1 -1 0
1;
#X obj 517 159 tgl 15 0 empty empty empty 17 7 0 10 -262144 -1 -1 0
1;
#X obj 539 161 tgl 15 0 empty empty empty 17 7 0 10 -262144 -1 -1 0
1;
#X obj 588 244 s Key1;
#X obj 531 277 s Key2;
#X obj 509 304 s Key3;
#X obj 470 285 s Key4;
#X obj 459 357 s Key5;
#X obj 443 328 s Key6;
#X obj 433 380 s Key7;
#X obj 416 318 s OctUp;
#X obj 377 363 s OctDwn;
#X obj 352 415 s Scale;
#X obj 421 258 s Key8;
#X connect 2 0 7 0;
#X connect 2 1 8 0;
#X connect 2 2 9 0;
#X connect 2 3 10 0;
#X connect 2 4 11 0;
#X connect 2 5 12 0;
#X connect 2 6 13 0;
#X connect 2 7 14 0;
#X connect 2 8 15 0;
#X connect 2 9 16 0;
#X connect 2 10 1 0;
#X connect 3 0 4 0;
#X connect 4 0 0 0;
#X connect 4 2 5 0;
#X connect 4 4 6 0;
#X connect 4 6 2 0;
#X connect 7 0 26 0;
#X connect 8 0 25 0;
#X connect 9 0 24 0;
#X connect 10 0 27 0;
#X connect 11 0 23 0;
#X connect 12 0 21 0;
#X connect 13 0 20 0;
#X connect 14 0 19 0;
#X connect 15 0 18 0;
#X connect 16 0 17 0;
#X restore 144 415 pd MIDIKEY;
#X connect 1 0 0 0;
#X connect 1 0 16 0;
#X connect 2 0 16 0;
#X connect 4 0 1 0;
#X connect 5 0 10 0;
#X connect 5 0 21 0;
#X connect 6 0 1 0;
#X connect 8 0 1 0;
#X connect 9 0 16 0;
#X connect 10 0 36 0;
#X connect 10 1 18 0;
#X connect 12 0 16 0;
#X connect 13 0 12 0;
#X connect 14 0 9 0;
#X connect 16 0 5 0;
#X connect 17 0 18 1;
#X connect 18 0 19 0;
#X connect 19 0 20 0;
#X connect 20 0 11 0;
#X connect 20 1 15 0;
#X connect 22 0 28 1;
#X connect 23 0 26 0;
#X connect 23 0 27 1;
#X connect 26 0 34 0;
#X connect 26 1 28 0;
#X connect 26 2 30 0;
#X connect 26 3 27 0;
#X connect 26 4 35 0;
#X connect 27 0 24 0;
#X connect 27 0 32 1;
#X connect 28 0 25 0;
#X connect 28 0 32 2;
#X connect 31 0 29 0;
#X connect 31 0 1 0;
#X connect 32 0 31 0;
#X connect 34 0 32 3;
#X connect 35 0 32 0;
#X restore 37 20 pd arduino_com;
#X obj 53 147 vsl 60 400 0.01 1 0 0 master master Master_Volume 0 -9
0 10 -262130 -4034 -1 39781 1;
#N canvas 1179 0 725 986 OSC_com 1;
#X msg 34 162 connect localhost 8000;
#X msg -1 195 disconnect;
#X obj 34 128 r connectOSC;
#X obj -1 151 r dscOSC;
#N canvas 960 0 944 986 Transport_Controls 0;
#X obj 376 51 r play;
#X obj 376 76 route 1 0;
#X obj 533 55 r save;
#X msg 371 117 send /play;
#X msg 446 117 send /pause;
#X msg 533 116 send /action/40026;
#X obj 656 55 r click;
#X msg 656 115 send /click;
#X obj 480 243 outlet;
#X msg 194 117 send /master/volume \$1;
#X obj 194 96 r master;
#X obj 71 167 r stop;
#X msg 70 213 send /stop;
#X obj 70 248 r record;
#X obj 202 341 r loop;
#X obj 367 370 r new_trck;
#X obj 468 370 r shw_mxr;
#X msg 104 282 send /record;
#X msg 231 369 send /repeat;
#X msg 509 409 send /action/40078;
#X msg 373 411 send /action/40001;
#X obj 775 76 r auto_latch;
#X msg 775 95 send /action/40404;
#X obj 782 116 r auto_read;
#X msg 769 136 send /action/40401;
#X obj 767 159 r auto_touch;
#X msg 767 181 send /action/40402;
#X obj 765 213 r auto_trim;
#X msg 765 237 send /action/40400;
#X obj 765 262 r auto_write;
#X msg 763 282 send /action/40403;
#X obj 714 349 r trck_slct;
#X msg 610 494 send /device/track/bank/+;
#X obj 611 458 r trck_bnk;
#N canvas 393 263 570 426 trck_slct 0;
#X obj 71 26 inlet;
#X obj 55 112 f;
#X obj 98 112 + 1;
#X msg 129 65 0;
#X obj 128 28 loadbang;
#X obj 55 153 mod 6;
#X msg 61 376 send /device/track/select \$1;
#X obj 61 404 outlet;
#X obj 59 191 + 1;
#X floatatom 53 244 5 0 0 0 - - -;
#X obj 96 291 s /track/select;
#X connect 0 0 1 0;
#X connect 1 0 2 0;
#X connect 1 0 5 0;
#X connect 2 0 1 1;
#X connect 3 0 1 0;
#X connect 4 0 3 0;
#X connect 5 0 8 0;
#X connect 6 0 7 0;
#X connect 8 0 9 0;
#X connect 9 0 6 0;
#X connect 9 0 10 0;
#X restore 698 395 pd trck_slct;
#X obj 446 591 r trck_vol;
#N canvas 1085 267 450 300 trck_vol 0;
#X obj 57 28 inlet;
#X obj 78 264 outlet;
#X msg 81 223 send /track/volume \$1;
#X connect 0 0 2 0;
#X connect 2 0 1 0;
#X restore 434 646 pd trck_vol;
#X obj 239 489 r trck_pan;
#X msg 224 543 send /track/pan \$1;
#X connect 0 0 1 0;
#X connect 1 0 3 0;
#X connect 1 1 4 0;
#X connect 2 0 5 0;
#X connect 3 0 8 0;
#X connect 4 0 8 0;
#X connect 5 0 8 0;
#X connect 6 0 7 0;
#X connect 7 0 8 0;
#X connect 9 0 8 0;
#X connect 10 0 9 0;
#X connect 11 0 12 0;
#X connect 12 0 8 0;
#X connect 13 0 17 0;
#X connect 14 0 18 0;
#X connect 15 0 20 0;
#X connect 16 0 19 0;
#X connect 17 0 8 0;
#X connect 18 0 8 0;
#X connect 19 0 8 0;
#X connect 20 0 8 0;
#X connect 21 0 22 0;
#X connect 22 0 8 0;
#X connect 23 0 24 0;
#X connect 24 0 8 0;
#X connect 25 0 26 0;
#X connect 26 0 8 0;
#X connect 27 0 28 0;
#X connect 28 0 8 0;
#X connect 29 0 30 0;
#X connect 30 0 8 0;
#X connect 31 0 34 0;
#X connect 32 0 8 0;
#X connect 33 0 32 0;
#X connect 34 0 8 0;
#X connect 35 0 36 0;
#X connect 36 0 8 0;
#X connect 37 0 38 0;
#X connect 38 0 8 0;
#X restore 194 143 pd Transport_Controls;
#X obj 204 274 mrpeach/packOSC;
#X obj 198 335 mrpeach/udpsend;
#N canvas 567 150 933 605 DrumMachine 0;
#X obj 270 296 outlet;
#X obj 56 91 float;
#X obj 129 88 + 1;
#X obj 56 130 mod 2;
#X floatatom 56 168 5 0 0 0 - - -;
#X obj 56 206 select 0 1;
#N canvas 870 0 774 986 Pad1 0;
#X obj 80 386 outlet;
#X obj 76 107 r Pad1;
#X obj 166 187 delay 50;
#X obj 278 140 r notelength;
#X floatatom 279 195 5 0 0 0 - - -;
#X obj 367 175 * 1000;
#X obj 76 147 t b b b;
#X obj 440 173 r velocity;
#X obj 440 218 * 100;
#X obj 390 244 f;
#X obj 578 23 r BnkUp;
#X obj 670 22 r BnkDwn;
#X floatatom 604 139 5 0 0 0 - - -;
#X obj 576 84 + 9;
#X obj 667 87 - 9;
#X obj 484 32 loadbang;
#X msg 488 80 36;
#X obj 417 20 bng 15 250 50 0 empty empty empty 17 7 0 10 -262144 -1
-1;
#X msg 8 268 send /vkb_midi/2/note/36 \$1;
#X msg 188 268 send /vkb_midi/2/note/36 0;
#X connect 1 0 6 0;
#X connect 2 0 19 0;
#X connect 3 0 5 0;
#X connect 4 0 2 1;
#X connect 5 0 4 0;
#X connect 6 0 18 0;
#X connect 6 1 2 0;
#X connect 6 2 9 0;
#X connect 7 0 8 0;
#X connect 8 0 9 1;
#X connect 9 0 18 0;
#X connect 10 0 13 0;
#X connect 11 0 14 0;
#X connect 13 0 12 0;
#X connect 14 0 12 0;
#X connect 15 0 16 0;
#X connect 16 0 12 0;
#X connect 17 0 16 0;
#X connect 18 0 0 0;
#X connect 19 0 0 0;
#X restore 705 106 pd Pad1;
#N canvas 194 407 1013 541 Pad2 0;
#X obj 110 316 outlet;
#X obj 196 117 delay 50;
#X msg 212 269 send /vkb_midi/1/polyaftertouch/ 36;
#X msg 449 270 send /vkb_midi/1/polyaftertouch/ 0;
#X obj 308 70 r notelength;
#X floatatom 309 125 5 0 0 0 - - -;
#X obj 397 105 * 1000;
#X obj 450 162 r velocity;
#X obj 450 207 * 100;
#X obj 106 77 t b b b;
#X obj 106 37 r Pad2;
#X obj 400 233 f;
#X msg 38 198 send /vkb_midi/2/note/37 \$1;
#X msg 218 198 send /vkb_midi/2/note/37 0;
#X connect 1 0 13 0;
#X connect 2 0 0 0;
#X connect 3 0 0 0;
#X connect 4 0 6 0;
#X connect 5 0 1 1;
#X connect 6 0 5 0;
#X connect 7 0 8 0;
#X connect 8 0 11 1;
#X connect 9 0 12 0;
#X connect 9 1 1 0;
#X connect 9 2 11 0;
#X connect 10 0 9 0;
#X connect 11 0 12 0;
#X connect 12 0 0 0;
#X connect 13 0 0 0;
#X restore 371 95 pd Pad2;
#N canvas 194 407 1013 541 Pad3 0;
#X obj 110 316 outlet;
#X obj 196 117 delay 50;
#X msg 212 269 send /vkb_midi/1/polyaftertouch/ 36;
#X msg 449 270 send /vkb_midi/1/polyaftertouch/ 0;
#X obj 308 70 r notelength;
#X floatatom 309 125 5 0 0 0 - - -;
#X obj 397 105 * 1000;
#X obj 450 162 r velocity;
#X obj 450 207 * 100;
#X obj 106 77 t b b b;
#X obj 400 233 f;
#X obj 106 37 r Pad3;
#X msg 38 198 send /vkb_midi/2/note/38 \$1;
#X msg 218 198 send /vkb_midi/2/note/38 0;
#X connect 1 0 13 0;
#X connect 2 0 0 0;
#X connect 3 0 0 0;
#X connect 4 0 6 0;
#X connect 5 0 1 1;
#X connect 6 0 5 0;
#X connect 7 0 8 0;
#X connect 8 0 10 1;
#X connect 9 0 12 0;
#X connect 9 1 1 0;
#X connect 9 2 10 0;
#X connect 10 0 12 0;
#X connect 11 0 9 0;
#X connect 12 0 0 0;
#X connect 13 0 0 0;
#X restore 269 43 pd Pad3;
#N canvas 194 407 1013 541 Pad4 0;
#X obj 110 316 outlet;
#X obj 196 117 delay 50;
#X msg 212 269 send /vkb_midi/1/polyaftertouch/ 36;
#X msg 449 270 send /vkb_midi/1/polyaftertouch/ 0;
#X obj 308 70 r notelength;
#X floatatom 309 125 5 0 0 0 - - -;
#X obj 397 105 * 1000;
#X obj 450 162 r velocity;
#X obj 450 207 * 100;
#X obj 106 77 t b b b;
#X obj 400 233 f;
#X obj 106 37 r Pad4;
#X msg 38 198 send /vkb_midi/2/note/39 \$1;
#X msg 218 198 send /vkb_midi/2/note/39 0;
#X connect 1 0 13 0;
#X connect 2 0 0 0;
#X connect 3 0 0 0;
#X connect 4 0 6 0;
#X connect 5 0 1 1;
#X connect 6 0 5 0;
#X connect 7 0 8 0;
#X connect 8 0 10 1;
#X connect 9 0 12 0;
#X connect 9 1 1 0;
#X connect 9 2 10 0;
#X connect 10 0 12 0;
#X connect 11 0 9 0;
#X connect 12 0 0 0;
#X connect 13 0 0 0;
#X restore 188 90 pd Pad4;
#N canvas 1076 354 774 443 Pad5 0;
#X obj 100 306 outlet;
#X obj 186 107 delay 50;
#X msg 202 259 send /vkb_midi/1/polyaftertouch/ 36;
#X msg 439 260 send /vkb_midi/1/polyaftertouch/ 0;
#X obj 298 60 r notelength;
#X floatatom 299 115 5 0 0 0 - - -;
#X obj 387 95 * 1000;
#X obj 96 67 t b b b;
#X obj 460 133 r velocity;
#X obj 460 178 * 100;
#X obj 410 204 f;
#X obj 96 27 r Pad5;
#X msg 28 188 send /vkb_midi/2/note/40 \$1;
#X msg 208 188 send /vkb_midi/2/note/40 0;
#X connect 1 0 13 0;
#X connect 2 0 0 0;
#X connect 3 0 0 0;
#X connect 4 0 6 0;
#X connect 5 0 1 1;
#X connect 6 0 5 0;
#X connect 7 0 12 0;
#X connect 7 1 1 0;
#X connect 7 2 10 0;
#X connect 8 0 9 0;
#X connect 9 0 10 1;
#X connect 10 0 12 0;
#X connect 11 0 7 0;
#X connect 12 0 0 0;
#X connect 13 0 0 0;
#X restore 460 145 pd Pad5;
#N canvas 1076 354 774 443 Pad6 0;
#X obj 100 306 outlet;
#X obj 186 107 delay 50;
#X msg 202 259 send /vkb_midi/1/polyaftertouch/ 36;
#X msg 439 260 send /vkb_midi/1/polyaftertouch/ 0;
#X obj 298 60 r notelength;
#X floatatom 299 115 5 0 0 0 - - -;
#X obj 387 95 * 1000;
#X obj 96 67 t b b b;
#X obj 460 133 r velocity;
#X obj 460 178 * 100;
#X obj 410 204 f;
#X obj 96 27 r Pad6;
#X msg 28 188 send /vkb_midi/2/note/41 \$1;
#X msg 208 188 send /vkb_midi/2/note/41 0;
#X connect 1 0 13 0;
#X connect 2 0 0 0;
#X connect 3 0 0 0;
#X connect 4 0 6 0;
#X connect 5 0 1 1;
#X connect 6 0 5 0;
#X connect 7 0 12 0;
#X connect 7 1 1 0;
#X connect 7 2 10 0;
#X connect 8 0 9 0;
#X connect 9 0 10 1;
#X connect 10 0 12 0;
#X connect 11 0 7 0;
#X connect 12 0 0 0;
#X connect 13 0 0 0;
#X restore 587 206 pd Pad6;
#N canvas 194 407 1013 541 Pad7 0;
#X obj 110 316 outlet;
#X obj 196 117 delay 50;
#X msg 212 269 send /vkb_midi/1/polyaftertouch/ 36;
#X msg 449 270 send /vkb_midi/1/polyaftertouch/ 0;
#X obj 308 70 r notelength;
#X floatatom 309 125 5 0 0 0 - - -;
#X obj 397 105 * 1000;
#X obj 450 162 r velocity;
#X obj 450 207 * 100;
#X obj 106 77 t b b b;
#X obj 400 233 f;
#X obj 106 37 r Pad7;
#X msg 38 198 send /vkb_midi/2/note/42 \$1;
#X msg 218 198 send /vkb_midi/2/note/42 0;
#X connect 1 0 13 0;
#X connect 2 0 0 0;
#X connect 3 0 0 0;
#X connect 4 0 6 0;
#X connect 5 0 1 1;
#X connect 6 0 5 0;
#X connect 7 0 8 0;
#X connect 8 0 10 1;
#X connect 9 0 12 0;
#X connect 9 1 1 0;
#X connect 9 2 10 0;
#X connect 10 0 12 0;
#X connect 11 0 9 0;
#X connect 12 0 0 0;
#X connect 13 0 0 0;
#X restore 580 300 pd Pad7;
#N canvas 1076 354 774 443 Pad8 0;
#X obj 100 306 outlet;
#X obj 186 107 delay 50;
#X msg 202 259 send /vkb_midi/1/polyaftertouch/ 36;
#X msg 439 260 send /vkb_midi/1/polyaftertouch/ 0;
#X obj 298 60 r notelength;
#X floatatom 299 115 5 0 0 0 - - -;
#X obj 387 95 * 1000;
#X obj 96 67 t b b b;
#X obj 460 133 r velocity;
#X obj 460 178 * 100;
#X obj 410 204 f;
#X obj 96 27 r Pad8;
#X msg 28 188 send /vkb_midi/2/note/43 \$1;
#X msg 208 188 send /vkb_midi/2/note/43 0;
#X connect 1 0 13 0;
#X connect 2 0 0 0;
#X connect 3 0 0 0;
#X connect 4 0 6 0;
#X connect 5 0 1 1;
#X connect 6 0 5 0;
#X connect 7 0 12 0;
#X connect 7 1 1 0;
#X connect 7 2 10 0;
#X connect 8 0 9 0;
#X connect 9 0 10 1;
#X connect 10 0 12 0;
#X connect 11 0 7 0;
#X connect 12 0 0 0;
#X connect 13 0 0 0;
#X restore 534 381 pd Pad8;
#X connect 1 0 2 0;
#X connect 1 0 3 0;
#X connect 2 0 1 1;
#X connect 3 0 4 0;
#X connect 6 0 0 0;
#X connect 7 0 0 0;
#X connect 8 0 0 0;
#X connect 9 0 0 0;
#X connect 10 0 0 0;
#X connect 11 0 0 0;
#X connect 12 0 0 0;
#X connect 13 0 0 0;
#X restore 338 191 pd DrumMachine;
#X obj 371 357 print OSC_out;
#X obj 594 217 import mpreach;
#X obj 125 418 dumpOSC 9001;
#X obj 120 501 print Reaper_out;
#X obj 338 561 notein;
#X floatatom 315 638 5 0 0 0 - - -;
#X floatatom 363 639 5 0 0 0 - - -;
#X floatatom 410 643 5 0 0 0 - - -;
#X obj 302 719 s MIDINOTE;
#X obj 402 724 s MIDISTATE;
#N canvas 522 0 727 986 MIDIKEY 0;
#X obj 178 309 outlet;
#N canvas 960 0 944 986 Key1 0;
#X obj 90 396 outlet;
#X obj 230 43 r velocity;
#X obj 230 88 * 100;
#X obj 494 42 loadbang;
#X msg 494 170 36;
#X obj 427 30 bng 15 250 50 0 empty empty empty 17 7 0 10 -262144 -1
-1;
#X msg 93 245 send /vkb_midi/1/note/\$1 \$2;
#X obj 227 178 pack 0 0;
#X floatatom 360 124 5 0 0 0 - - -;
#X obj 359 168 t b f;
#X obj 588 33 r OctUp;
#X obj 680 32 r OctDwn;
#X obj 587 62 bng 15 250 50 0 empty empty empty 17 7 0 10 -262144 -1
-1;
#X obj 677 64 bng 15 250 50 0 empty empty empty 17 7 0 10 -262144 -1
-1;
#X obj 553 215 f;
#X floatatom 519 256 5 0 0 0 - - -;
#X obj 664 213 f;
#X obj 717 212 - 9;
#X obj 575 102 t b b;
#X obj 659 104 t b b;
#X obj 71 82 select 0 1;
#X obj 55 127 bng 15 250 50 0 empty empty empty 17 7 0 10 -262144 -1
-1;
#X obj 100 130 bng 15 250 50 0 empty empty empty 17 7 0 10 -262144
-1 -1;
#X obj 86 37 r Key1;
#X msg 111 301 send /vkb_midi/1/note/\$1 0;
#X obj 365 -1 r resetnotes;
#X msg 608 164 12;
#X msg 652 166 -12;
#X obj 602 214 + 12;
#X connect 1 0 2 0;
#X connect 1 0 8 0;
#X connect 3 0 4 0;
#X connect 4 0 14 0;
#X connect 5 0 4 0;
#X connect 6 0 0 0;
#X connect 7 0 6 0;
#X connect 8 0 9 0;
#X connect 8 0 7 1;
#X connect 10 0 12 0;
#X connect 11 0 13 0;
#X connect 12 0 18 0;
#X connect 13 0 19 0;
#X connect 14 0 15 0;
#X connect 14 0 28 0;
#X connect 15 0 7 0;
#X connect 15 0 24 0;
#X connect 16 0 17 0;
#X connect 17 0 16 1;
#X connect 18 0 14 0;
#X connect 18 1 26 0;
#X connect 19 0 14 0;
#X connect 19 1 27 0;
#X connect 20 0 21 0;
#X connect 20 1 22 0;
#X connect 21 0 24 0;
#X connect 21 0 15 0;
#X connect 22 0 6 0;
#X connect 22 0 7 0;
#X connect 23 0 20 0;
#X connect 24 0 0 0;
#X connect 25 0 5 0;
#X connect 25 0 21 0;
#X connect 26 0 28 1;
#X connect 27 0 28 1;
#X connect 28 0 14 1;
#X restore 185 171 pd Key1;
#N canvas 1000 179 758 671 Key2 0;
#X obj 100 406 outlet;
#X obj 240 53 r velocity;
#X obj 240 98 * 100;
#X obj 504 52 loadbang;
#X obj 437 40 bng 15 250 50 0 empty empty empty 17 7 0 10 -262144 -1
-1;
#X msg 103 255 send /vkb_midi/1/note/\$1 \$2;
#X obj 237 188 pack 0 0;
#X floatatom 370 134 5 0 0 0 - - -;
#X obj 598 43 r OctUp;
#X obj 690 42 r OctDwn;
#X obj 597 72 bng 15 250 50 0 empty empty empty 17 7 0 10 -262144 -1
-1;
#X obj 687 74 bng 15 250 50 0 empty empty empty 17 7 0 10 -262144 -1
-1;
#X obj 563 225 f;
#X floatatom 529 266 5 0 0 0 - - -;
#X obj 674 223 f;
#X obj 727 222 - 9;
#X obj 581 111 t b b;
#X obj 669 114 t b b;
#X obj 81 92 select 0 1;
#X obj 65 137 bng 15 250 50 0 empty empty empty 17 7 0 10 -262144 -1
-1;
#X obj 110 140 bng 15 250 50 0 empty empty empty 17 7 0 10 -262144
-1 -1;
#X msg 121 311 send /vkb_midi/1/note/\$1 0;
#X obj 96 47 r Key2;
#X msg 504 180 38;
#X obj 388 12 r resetnotes;
#X msg 600 173 12;
#X msg 660 173 -12;
#X obj 612 224 + 12;
#X connect 1 0 2 0;
#X connect 1 0 7 0;
#X connect 3 0 23 0;
#X connect 4 0 23 0;
#X connect 5 0 0 0;
#X connect 6 0 5 0;
#X connect 7 0 6 1;
#X connect 8 0 10 0;
#X connect 9 0 11 0;
#X connect 10 0 16 0;
#X connect 11 0 17 0;
#X connect 12 0 13 0;
#X connect 12 0 27 0;
#X connect 13 0 6 0;
#X connect 13 0 21 0;
#X connect 14 0 15 0;
#X connect 15 0 14 1;
#X connect 16 0 12 0;
#X connect 16 1 25 0;
#X connect 17 0 12 0;
#X connect 17 1 26 0;
#X connect 18 0 19 0;
#X connect 18 1 20 0;
#X connect 19 0 21 0;
#X connect 19 0 13 0;
#X connect 20 0 5 0;
#X connect 20 0 6 0;
#X connect 21 0 0 0;
#X connect 22 0 18 0;
#X connect 23 0 12 0;
#X connect 24 0 4 0;
#X connect 24 0 19 0;
#X connect 25 0 27 1;
#X connect 26 0 27 1;
#X connect 27 0 12 1;
#X restore 256 176 pd Key2;
#N canvas 868 97 834 662 Key3 0;
#X obj 110 416 outlet;
#X obj 250 63 r velocity;
#X obj 250 108 * 100;
#X obj 514 62 loadbang;
#X obj 447 50 bng 15 250 50 0 empty empty empty 17 7 0 10 -262144 -1
-1;
#X msg 113 265 send /vkb_midi/1/note/\$1 \$2;
#X obj 247 198 pack 0 0;
#X floatatom 380 144 5 0 0 0 - - -;
#X obj 608 53 r OctUp;
#X obj 700 52 r OctDwn;
#X obj 607 82 bng 15 250 50 0 empty empty empty 17 7 0 10 -262144 -1
-1;
#X obj 697 84 bng 15 250 50 0 empty empty empty 17 7 0 10 -262144 -1
-1;
#X obj 573 235 f;
#X floatatom 539 276 5 0 0 0 - - -;
#X obj 684 233 f;
#X obj 737 232 - 9;
#X obj 595 122 t b b;
#X obj 679 124 t b b;
#X obj 91 102 select 0 1;
#X obj 75 147 bng 15 250 50 0 empty empty empty 17 7 0 10 -262144 -1
-1;
#X obj 120 150 bng 15 250 50 0 empty empty empty 17 7 0 10 -262144
-1 -1;
#X msg 131 321 send /vkb_midi/1/note/\$1 0;
#X obj 106 57 r Key3;
#X obj 430 19 r resetnotes;
#X msg 514 190 40;
#X msg 640 179 12;
#X msg 684 175 -12;
#X obj 622 234 + 12;
#X connect 1 0 2 0;
#X connect 1 0 7 0;
#X connect 3 0 24 0;
#X connect 4 0 24 0;
#X connect 5 0 0 0;
#X connect 6 0 5 0;
#X connect 7 0 6 1;
#X connect 8 0 10 0;
#X connect 9 0 11 0;
#X connect 10 0 16 0;
#X connect 11 0 17 0;
#X connect 12 0 13 0;
#X connect 12 0 27 0;
#X connect 13 0 6 0;
#X connect 13 0 21 0;
#X connect 14 0 15 0;
#X connect 15 0 14 1;
#X connect 16 0 12 0;
#X connect 16 1 25 0;
#X connect 17 0 12 0;
#X connect 17 1 26 0;
#X connect 18 0 19 0;
#X connect 18 1 20 0;
#X connect 19 0 21 0;
#X connect 19 0 13 0;
#X connect 20 0 5 0;
#X connect 20 0 6 0;
#X connect 21 0 0 0;
#X connect 22 0 18 0;
#X connect 23 0 4 0;
#X connect 23 0 19 0;
#X connect 24 0 12 0;
#X connect 25 0 27 1;
#X connect 26 0 27 1;
#X connect 27 0 12 1;
#X restore 339 191 pd Key3;
#N canvas 0 0 1916 986 Key4 0;
#X obj 120 426 outlet;
#X obj 260 73 r velocity;
#X obj 260 118 * 100;
#X obj 524 72 loadbang;
#X obj 457 60 bng 15 250 50 0 empty empty empty 17 7 0 10 -262144 -1
-1;
#X msg 123 275 send /vkb_midi/1/note/\$1 \$2;
#X obj 257 208 pack 0 0;
#X floatatom 390 154 5 0 0 0 - - -;
#X obj 618 63 r OctUp;
#X obj 710 62 r OctDwn;
#X obj 617 92 bng 15 250 50 0 empty empty empty 17 7 0 10 -262144 -1
-1;
#X obj 707 94 bng 15 250 50 0 empty empty empty 17 7 0 10 -262144 -1
-1;
#X obj 583 245 f;
#X floatatom 549 286 5 0 0 0 - - -;
#X obj 694 243 f;
#X obj 747 242 - 9;
#X obj 605 132 t b b;
#X obj 689 134 t b b;
#X obj 101 112 select 0 1;
#X obj 85 157 bng 15 250 50 0 empty empty empty 17 7 0 10 -262144 -1
-1;
#X obj 130 160 bng 15 250 50 0 empty empty empty 17 7 0 10 -262144
-1 -1;
#X msg 141 331 send /vkb_midi/1/note/\$1 0;
#X obj 440 29 r resetnotes;
#X obj 116 67 r Key4;
#X msg 524 200 41;
#X msg 657 199 12;
#X msg 716 199 -12;
#X obj 632 244 + 12;
#X connect 1 0 2 0;
#X connect 1 0 7 0;
#X connect 3 0 24 0;
#X connect 4 0 24 0;
#X connect 5 0 0 0;
#X connect 6 0 5 0;
#X connect 7 0 6 1;
#X connect 8 0 10 0;
#X connect 9 0 11 0;
#X connect 10 0 16 0;
#X connect 11 0 17 0;
#X connect 12 0 13 0;
#X connect 12 0 27 0;
#X connect 13 0 6 0;
#X connect 13 0 21 0;
#X connect 14 0 15 0;
#X connect 15 0 14 1;
#X connect 16 0 12 0;
#X connect 16 1 25 0;
#X connect 17 0 12 0;
#X connect 17 1 26 0;
#X connect 18 0 19 0;
#X connect 18 1 20 0;
#X connect 19 0 21 0;
#X connect 19 0 13 0;
#X connect 20 0 5 0;
#X connect 20 0 6 0;
#X connect 21 0 0 0;
#X connect 22 0 4 0;
#X connect 22 0 19 0;
#X connect 23 0 18 0;
#X connect 24 0 12 0;
#X connect 25 0 27 1;
#X connect 26 0 27 1;
#X connect 27 0 12 1;
#X restore 405 234 pd Key4;
#N canvas 0 0 1920 1002 Key 0;
#X obj 130 436 outlet;
#X obj 270 83 r velocity;
#X obj 270 128 * 100;
#X obj 534 82 loadbang;
#X obj 467 70 bng 15 250 50 0 empty empty empty 17 7 0 10 -262144 -1
-1;
#X msg 133 285 send /vkb_midi/1/note/\$1 \$2;
#X obj 267 218 pack 0 0;
#X floatatom 400 164 5 0 0 0 - - -;
#X obj 628 73 r OctUp;
#X obj 720 72 r OctDwn;
#X obj 627 102 bng 15 250 50 0 empty empty empty 17 7 0 10 -262144
-1 -1;
#X obj 717 104 bng 15 250 50 0 empty empty empty 17 7 0 10 -262144
-1 -1;
#X obj 593 255 f;
#X floatatom 559 296 5 0 0 0 - - -;
#X obj 704 253 f;
#X obj 757 252 - 9;
#X obj 615 142 t b b;
#X obj 699 144 t b b;
#X obj 111 122 select 0 1;
#X obj 95 167 bng 15 250 50 0 empty empty empty 17 7 0 10 -262144 -1
-1;
#X obj 140 170 bng 15 250 50 0 empty empty empty 17 7 0 10 -262144
-1 -1;
#X msg 151 341 send /vkb_midi/1/note/\$1 0;
#X obj 450 40 r resetnotes;
#X obj 126 77 r Key5;
#X msg 534 210 43;
#X msg 675 204 12;
#X msg 726 204 -12;
#X obj 642 254 + 12;
#X connect 1 0 2 0;
#X connect 1 0 7 0;
#X connect 3 0 24 0;
#X connect 4 0 24 0;
#X connect 5 0 0 0;
#X connect 6 0 5 0;
#X connect 7 0 6 1;
#X connect 8 0 10 0;
#X connect 9 0 11 0;
#X connect 10 0 16 0;
#X connect 11 0 17 0;
#X connect 12 0 13 0;
#X connect 12 0 27 0;
#X connect 13 0 6 0;
#X connect 13 0 21 0;
#X connect 14 0 15 0;
#X connect 15 0 14 1;
#X connect 16 0 12 0;
#X connect 16 1 25 0;
#X connect 17 0 12 0;
#X connect 17 1 26 0;
#X connect 18 0 19 0;
#X connect 18 1 20 0;
#X connect 19 0 21 0;
#X connect 19 0 13 0;
#X connect 20 0 5 0;
#X connect 20 0 6 0;
#X connect 21 0 0 0;
#X connect 22 0 4 0;
#X connect 22 0 19 0;
#X connect 23 0 18 0;
#X connect 24 0 12 0;
#X connect 25 0 27 1;
#X connect 26 0 27 1;
#X connect 27 0 12 1;
#X restore 406 310 pd Key 5;
#N canvas 0 0 1920 1002 Key6 0;
#X obj 140 446 outlet;
#X obj 280 93 r velocity;
#X obj 280 138 * 100;
#X obj 544 92 loadbang;
#X obj 477 80 bng 15 250 50 0 empty empty empty 17 7 0 10 -262144 -1
-1;
#X msg 143 295 send /vkb_midi/1/note/\$1 \$2;
#X obj 277 228 pack 0 0;
#X floatatom 410 174 5 0 0 0 - - -;
#X obj 638 83 r OctUp;
#X obj 730 82 r OctDwn;
#X obj 637 112 bng 15 250 50 0 empty empty empty 17 7 0 10 -262144
-1 -1;
#X obj 727 114 bng 15 250 50 0 empty empty empty 17 7 0 10 -262144
-1 -1;
#X obj 603 265 f;
#X floatatom 569 306 5 0 0 0 - - -;
#X obj 714 263 f;
#X obj 767 262 - 9;
#X obj 625 152 t b b;
#X obj 709 154 t b b;
#X obj 121 132 select 0 1;
#X obj 105 177 bng 15 250 50 0 empty empty empty 17 7 0 10 -262144
-1 -1;
#X obj 150 180 bng 15 250 50 0 empty empty empty 17 7 0 10 -262144
-1 -1;
#X msg 161 351 send /vkb_midi/1/note/\$1 0;
#X obj 460 49 r resetnotes;
#X obj 136 87 r Key6;
#X msg 544 220 45;
#X msg 679 222 12;
#X msg 725 227 -12;
#X obj 652 264 + 12;
#X connect 1 0 2 0;
#X connect 1 0 7 0;
#X connect 3 0 24 0;
#X connect 4 0 24 0;
#X connect 5 0 0 0;
#X connect 6 0 5 0;
#X connect 7 0 6 1;
#X connect 8 0 10 0;
#X connect 9 0 11 0;
#X connect 10 0 16 0;
#X connect 11 0 17 0;
#X connect 12 0 13 0;
#X connect 12 0 27 0;
#X connect 13 0 6 0;
#X connect 13 0 21 0;
#X connect 14 0 15 0;
#X connect 15 0 14 1;
#X connect 16 0 12 0;
#X connect 16 1 25 0;
#X connect 17 0 12 0;
#X connect 17 1 26 0;
#X connect 18 0 19 0;
#X connect 18 1 20 0;
#X connect 19 0 21 0;
#X connect 19 0 13 0;
#X connect 20 0 5 0;
#X connect 20 0 6 0;
#X connect 21 0 0 0;
#X connect 22 0 4 0;
#X connect 22 0 19 0;
#X connect 23 0 18 0;
#X connect 24 0 12 0;
#X connect 25 0 27 1;
#X connect 26 0 27 1;
#X connect 27 0 12 1;
#X restore 396 361 pd Key6;
#N canvas 0 0 1920 1002 Key7 0;
#X obj 149 456 outlet;
#X obj 289 103 r velocity;
#X obj 289 148 * 100;
#X obj 553 102 loadbang;
#X obj 486 90 bng 15 250 50 0 empty empty empty 17 7 0 10 -262144 -1
-1;
#X msg 152 305 send /vkb_midi/1/note/\$1 \$2;
#X obj 286 238 pack 0 0;
#X floatatom 419 184 5 0 0 0 - - -;
#X obj 647 93 r OctUp;
#X obj 739 92 r OctDwn;
#X obj 646 122 bng 15 250 50 0 empty empty empty 17 7 0 10 -262144
-1 -1;
#X obj 736 124 bng 15 250 50 0 empty empty empty 17 7 0 10 -262144
-1 -1;
#X obj 612 275 f;
#X floatatom 578 316 5 0 0 0 - - -;
#X obj 723 273 f;
#X obj 776 272 - 9;
#X obj 634 162 t b b;
#X obj 718 164 t b b;
#X obj 130 142 select 0 1;
#X obj 114 187 bng 15 250 50 0 empty empty empty 17 7 0 10 -262144
-1 -1;
#X obj 159 190 bng 15 250 50 0 empty empty empty 17 7 0 10 -262144
-1 -1;
#X msg 170 361 send /vkb_midi/1/note/\$1 0;
#X obj 469 59 r resetnotes;
#X msg 688 232 12;
#X msg 734 237 -12;
#X obj 661 274 + 12;
#X obj 145 97 r Key7;
#X msg 553 230 47;
#X connect 1 0 2 0;
#X connect 1 0 7 0;
#X connect 3 0 27 0;
#X connect 4 0 27 0;
#X connect 5 0 0 0;
#X connect 6 0 5 0;
#X connect 7 0 6 1;
#X connect 8 0 10 0;
#X connect 9 0 11 0;
#X connect 10 0 16 0;
#X connect 11 0 17 0;
#X connect 12 0 13 0;
#X connect 12 0 25 0;
#X connect 13 0 6 0;
#X connect 13 0 21 0;
#X connect 14 0 15 0;
#X connect 15 0 14 1;
#X connect 16 0 12 0;
#X connect 16 1 23 0;
#X connect 17 0 12 0;
#X connect 17 1 24 0;
#X connect 18 0 19 0;
#X connect 18 1 20 0;
#X connect 19 0 21 0;
#X connect 19 0 13 0;
#X connect 20 0 5 0;
#X connect 20 0 6 0;
#X connect 21 0 0 0;
#X connect 22 0 4 0;
#X connect 22 0 19 0;
#X connect 23 0 25 1;
#X connect 24 0 25 1;
#X connect 25 0 12 1;
#X connect 26 0 18 0;
#X connect 27 0 12 0;
#X restore 393 403 pd Key7;
#N canvas 0 0 1920 1002 Key8 0;
#X obj 160 466 outlet;
#X obj 300 113 r velocity;
#X obj 300 158 * 100;
#X obj 564 112 loadbang;
#X obj 497 100 bng 15 250 50 0 empty empty empty 17 7 0 10 -262144
-1 -1;
#X msg 163 315 send /vkb_midi/1/note/\$1 \$2;
#X obj 297 248 pack 0 0;
#X floatatom 430 194 5 0 0 0 - - -;
#X obj 658 103 r OctUp;
#X obj 750 102 r OctDwn;
#X obj 657 132 bng 15 250 50 0 empty empty empty 17 7 0 10 -262144
-1 -1;
#X obj 747 134 bng 15 250 50 0 empty empty empty 17 7 0 10 -262144
-1 -1;
#X obj 623 285 f;
#X floatatom 589 326 5 0 0 0 - - -;
#X obj 734 283 f;
#X obj 787 282 - 9;
#X obj 645 172 t b b;
#X obj 729 174 t b b;
#X obj 141 152 select 0 1;
#X obj 125 197 bng 15 250 50 0 empty empty empty 17 7 0 10 -262144
-1 -1;
#X obj 170 200 bng 15 250 50 0 empty empty empty 17 7 0 10 -262144
-1 -1;
#X msg 181 371 send /vkb_midi/1/note/\$1 0;
#X obj 480 69 r resetnotes;
#X msg 699 242 12;
#X msg 745 247 -12;
#X obj 672 284 + 12;
#X obj 156 107 r Key8;
#X msg 564 240 48;
#X connect 1 0 2 0;
#X connect 1 0 7 0;
#X connect 3 0 27 0;
#X connect 4 0 27 0;
#X connect 5 0 0 0;
#X connect 6 0 5 0;
#X connect 7 0 6 1;
#X connect 8 0 10 0;
#X connect 9 0 11 0;
#X connect 10 0 16 0;
#X connect 11 0 17 0;
#X connect 12 0 13 0;
#X connect 12 0 25 0;
#X connect 13 0 6 0;
#X connect 13 0 21 0;
#X connect 14 0 15 0;
#X connect 15 0 14 1;
#X connect 16 0 12 0;
#X connect 16 1 23 0;
#X connect 17 0 12 0;
#X connect 17 1 24 0;
#X connect 18 0 19 0;
#X connect 18 1 20 0;
#X connect 19 0 21 0;
#X connect 19 0 13 0;
#X connect 20 0 5 0;
#X connect 20 0 6 0;
#X connect 21 0 0 0;
#X connect 22 0 4 0;
#X connect 22 0 19 0;
#X connect 23 0 25 1;
#X connect 24 0 25 1;
#X connect 25 0 12 1;
#X connect 26 0 18 0;
#X connect 27 0 12 0;
#X restore 324 448 pd Key8;
#X connect 1 0 0 0;
#X connect 2 0 0 0;
#X connect 3 0 0 0;
#X connect 4 0 0 0;
#X connect 5 0 0 0;
#X connect 6 0 0 0;
#X connect 7 0 0 0;
#X connect 8 0 0 0;
#X restore 496 144 pd MIDIKEY;
#X connect 0 0 6 0;
#X connect 1 0 6 0;
#X connect 2 0 0 0;
#X connect 3 0 1 0;
#X connect 4 0 5 0;
#X connect 4 0 8 0;
#X connect 5 0 6 0;
#X connect 7 0 5 0;
#X connect 7 0 8 0;
#X connect 10 0 11 0;
#X connect 12 0 13 0;
#X connect 12 1 14 0;
#X connect 12 2 15 0;
#X connect 13 0 16 0;
#X connect 15 0 17 0;
#X connect 18 0 5 0;
#X restore 37 56 pd OSC_com;
#X obj 53 550 tgl 60 0 play play Play 17 7 0 10 -262144 -1 -1 0 1;
#X obj 134 20 bng 40 250 50 0 save save Save_Project 0 -21 0 10 -204786
-13381 -260097;
#X obj -9 -50 bng 40 250 50 0 connectOSC connectOSC Connect_OSC 17
7 0 10 -232576 -1 -1;
#X obj 44 -50 bng 40 250 50 0 dscOSC dscOSC Disconnect_OSC 17 7 0 10
-232576 -1 -1;
#X obj 173 20 bng 40 250 50 0 click click Click 0 -10 0 10 -204786
-13381 -260097;
#X obj 243 147 vsl 60 400 0.01 1 0 0 trck_vol trck_vol Track_Volume
0 -9 0 10 -204800 -260097 -1 32669 1;
#X obj 292 -55 hradio 30 1 0 8 com_port empty Com_Port_Selection 0
-8 0 10 -262144 -1 -1 3;
#X obj 597 -52 bng 30 250 50 0 com_devices empty Devices 0 -10 0 10
-261234 -1 -1;
#X obj 209 586 hsl 250 40 0.01 1 1 0 trck_pan trck_pan empty -2 -8
0 10 -204800 -260097 -1 21903 1;
#X obj 293 3 hradio 30 1 0 3 Arduino2Behaviour Arduino2Behaviour Select_Behaviour
0 -8 0 10 -262144 -1 -1 1;
#N canvas 467 1 726 986 IPAD_com 1;
#X obj 53 213 print OSC_IPAD;
#X obj 146 263 mrpeach/routeOSC /1 /2 /3 /4;
#X obj 141 432 s Arduino2Behaviour;
#X msg 142 379 0;
#X msg 181 379 1;
#X msg 220 380 2;
#X obj 195 130 mrpeach/udpreceive 8001;
#X obj 283 220 dumpOSC 8002;
#X obj 145 334 mrpeach/routeOSC /toggle1 /toggle2 /toggle3 /toggle4
/fader5;
#X floatatom 413 434 5 0 0 0 - - -;
#X obj 405 523 s master;
#X obj 303 386 s play;
#X connect 1 0 8 0;
#X connect 3 0 2 0;
#X connect 4 0 2 0;
#X connect 5 0 2 0;
#X connect 6 0 0 0;
#X connect 6 0 1 0;
#X connect 7 0 0 0;
#X connect 7 0 1 0;
#X connect 8 0 3 0;
#X connect 8 1 4 0;
#X connect 8 2 5 0;
#X connect 8 3 11 0;
#X connect 8 4 9 0;
#X connect 9 0 10 0;
#X restore 32 96 pd IPAD_com;
#X obj 404 138 vsl 40 250 0 100 0 0 velocity velocity MIDI_VELOCITY
0 -9 0 10 -262144 -1 -1 21336 1;
#X obj 519 34 bng 60 250 50 0 resetnotes empty empty 17 7 0 10 -262144
-1 -1;
#X obj 504 138 vsl 40 250 0 100 0 0 notelength notelength MIDI_NOTELENGTH
0 -9 0 10 -262144 -1 -1 22704 1;
